# File created by Blade
# Date/Time:  Tue Apr 07 20:35:32 2015
# Frame Rate: 120.000 fps
#------------------------------------------------------
:FULLY-SPECIFIED
:DEGREES
695
root 1.071289 33.696228 -2.744229 26.884519 -44.341564 -39.028508
Spine 3.529710 22.109716 18.282765
Head 7.933391 13.068957 5.621296
LeftShoulder -24.107418 43.042821 11.999944
LeftArm 52.394986 -46.589344 -79.857786
LeftForeArm 5.796527 -0.000000 19.861379
LeftHand 12.230793 0.000000 5.442886
LeftHandThumb1 -26.253704 0.000000 33.147579
RightShoulder 4.486796 3.756626 -15.633848
RightArm 25.157406 -15.355745 76.850384
RightForeArm -8.135745 0.000000 12.900096
RightHand 0.940872 -0.000000 10.997667
RightHandThumb1 -24.326973 -0.000000 -32.862282
LeftUpLeg -1.747198 6.715681 20.454798
LeftLeg 12.357207 -0.000000 -0.000000
LeftFoot -15.241400 24.543824 -11.452721
LeftToeBase -9.320389 -0.000000 0.000000
RightUpLeg -86.758773 -49.051620 -5.831161
RightLeg 77.985928 -0.000000 -0.000000
RightFoot 40.287874 -23.479490 2.193152
RightToeBase 33.942366 -0.000000 -0.000000
696
root 1.038132 33.708099 -2.752947 27.171688 -44.087690 -39.339961
Spine 3.307942 22.179242 18.414765
Head 7.883747 12.930217 5.812377
LeftShoulder -24.169331 43.107189 11.918305
LeftArm 52.333331 -46.705796 -80.027893
LeftForeArm 6.020420 -0.000000 19.960545
LeftHand 12.070421 -0.000000 5.673393
LeftHandThumb1 -26.253704 0.000000 33.147579
RightShoulder 4.432973 3.863607 -15.651214
RightArm 25.204374 -15.285233 76.759815
RightForeArm -8.133207 -0.000000 12.948028
RightHand 0.889259 0.000000 10.916993
RightHandThumb1 -24.326973 -0.000000 -32.862282
LeftUpLeg -1.860398 6.552191 20.776066
LeftLeg 12.370615 -0.000000 -0.000000
LeftFoot -14.968093 24.846689 -10.773356
LeftToeBase -9.664825 -0.000000 0.000000
RightUpLeg -85.651227 -48.874338 -6.968555
RightLeg 77.425944 -0.000000 -0.000000
RightFoot 40.410371 -23.215308 2.223367
RightToeBase 33.824280 -0.000000 -0.000000
697
root 1.007059 33.719557 -2.757492 27.367259 -43.798885 -39.577663
Spine 3.123675 22.166631 18.529082
Head 7.792626 12.799094 6.001034
LeftShoulder -24.269269 43.181963 11.834458
LeftArm 51.987238 -46.683072 -79.910918
LeftForeArm 5.824021 -0.000000 20.100841
LeftHand 11.983413 -0.000000 5.850228
LeftHandThumb1 -26.253704 0.000000 33.147579
RightShoulder 4.384509 3.975436 -15.668011
RightArm 25.288212 -15.254672 76.635794
RightForeArm -8.030027 -0.000000 12.922550
RightHand 0.910778 0.000000 10.985994
RightHandThumb1 -24.326973 -0.000000 -32.862282
LeftUpLeg -1.986651 6.316254 21.069529
LeftLeg 12.440648 -0.000000 -0.000000
LeftFoot -14.745774 25.126488 -10.085282
LeftToeBase -9.767771 -0.000000 0.000000
RightUpLeg -84.514227 -48.729136 -8.125106
RightLeg 76.887669 -0.000000 -0.000000
RightFoot 40.438328 -23.674731 2.319750
RightToeBase 33.915735 -0.000000 -0.000000
698
root 0.975632 33.733076 -2.764551 27.576431 -43.472780 -39.828276
Spine 2.933284 22.121201 18.670253
Head 7.690844 12.669568 6.190237
LeftShoulder -24.380929 43.241093 11.751551
LeftArm 51.799430 -46.742945 -79.981939
LeftForeArm 5.746603 -0.000000 20.092893
LeftHand 12.044069 -0.000000 5.816906
LeftHandThumb1 -26.253704 0.000000 33.147579
RightShoulder 4.359156 4.148163 -15.691665
RightArm 25.264256 -15.152077 76.590791
RightForeArm -8.038569 -0.000000 12.940102
RightHand 0.941020 -0.000000 10.941871
RightHandThumb1 -24.326973 -0.000000 -32.862282
LeftUpLeg -2.138073 5.969922 21.393447
LeftLeg 12.530451 -0.000000 -0.000000
LeftFoot -14.556238 25.399622 -9.575351
LeftToeBase -9.872593 -0.000000 0.000000
RightUpLeg -83.278211 -48.564394 -9.360023
RightLeg 76.408420 -0.000000 -0.000000
RightFoot 40.473508 -23.925213 2.197835
RightToeBase 33.923130 -0.000000 -0.000000
699
root 0.942856 33.751195 -2.777078 27.829357 -43.100203 -40.158228
Spine 2.765172 22.092105 18.897269
Head 7.587010 12.495758 6.377168
LeftShoulder -24.483737 43.317234 11.673147
LeftArm 51.727057 -46.809949 -80.141461
LeftForeArm 5.695050 -0.000000 19.975666
LeftHand 11.998109 -0.000000 5.903304
LeftHandThumb1 -26.253704 0.000000 33.147579
RightShoulder 4.316816 4.234125 -15.723889
RightArm 25.291425 -15.040114 76.521749
RightForeArm -8.020771 0.000000 12.988303
RightHand 0.954414 -0.000000 10.854864
RightHandThumb1 -24.326973 -0.000000 -32.862282
LeftUpLeg -2.317001 5.659689 21.818974
LeftLeg 12.686204 -0.000000 -0.000000
LeftFoot -14.320439 25.599606 -9.083716
LeftToeBase -10.278382 -0.000000 0.000000
RightUpLeg -81.892229 -48.327901 -10.668822
RightLeg 75.991609 -0.000000 -0.000000
RightFoot 40.472039 -23.913576 2.019416
RightToeBase 33.821690 -0.000000 -0.000000
700
root 0.906924 33.771599 -2.786685 28.025754 -42.766897 -40.467480
Spine 2.641440 22.088542 19.096755
Head 7.492639 12.302667 6.614568
LeftShoulder -24.579252 43.438467 11.624954
LeftArm 51.634237 -46.853418 -80.276707
LeftForeArm 5.587342 -0.000000 19.806193
LeftHand 11.977685 -0.000000 5.911382
LeftHandThumb1 -26.253704 0.000000 33.147579
RightShoulder 4.264559 4.300997 -15.723409
RightArm 25.342302 -14.987268 76.409646
RightForeArm -7.958006 0.000000 12.994142
RightHand 0.998772 -0.000000 10.734865
RightHandThumb1 -24.326973 -0.000000 -32.862282
LeftUpLeg -2.444001 5.420966 22.225344
LeftLeg 12.853989 -0.000000 -0.000000
LeftFoot -14.181056 25.703421 -8.771792
LeftToeBase -10.443609 -0.000000 0.000000
RightUpLeg -80.357950 -47.996081 -12.163372
RightLeg 75.632260 -0.000000 -0.000000
RightFoot 40.542418 -23.647245 1.787073
RightToeBase 33.854171 -0.000000 -0.000000
701
root 0.873018 33.794990 -2.798902 28.247049 -42.322166 -40.809610
Spine 2.485491 22.010562 19.387962
Head 7.444862 12.116875 6.847407
LeftShoulder -24.699703 43.587153 11.568391
LeftArm 51.629488 -46.865182 -80.466086
LeftForeArm 5.504747 -0.000000 19.503991
LeftHand 12.070944 -0.000000 5.619619
LeftHandThumb1 -26.253704 0.000000 33.147579
RightShoulder 4.247868 4.320832 -15.754661
RightArm 25.386253 -14.777438 76.362027
RightForeArm -7.913586 -0.000000 13.008137
RightHand 1.051077 0.000000 10.716482
RightHandThumb1 -24.326973 -0.000000 -32.862282
LeftUpLeg -2.656864 5.044007 22.708992
LeftLeg 13.097345 -0.000000 -0.000000
LeftFoot -14.181842 25.780806 -8.666956
LeftToeBase -10.455014 -0.000000 0.000000
RightUpLeg -78.701436 -47.668288 -13.706335
RightLeg 75.320127 -0.000000 -0.000000
RightFoot 40.616025 -23.569926 1.812938
RightToeBase 33.763014 -0.000000 -0.000000
702
root 0.838405 33.821246 -2.808290 28.487190 -41.824453 -41.141350
Spine 2.276661 21.916828 19.688263
Head 7.395286 11.894935 7.078398
LeftShoulder -24.758654 43.602466 11.558186
LeftArm 51.491140 -46.924437 -80.535941
LeftForeArm 5.577082 -0.000000 19.148023
LeftHand 11.932172 0.000000 5.794321
LeftHandThumb1 -26.253704 0.000000 33.147579
RightShoulder 4.187244 4.319667 -15.781782
RightArm 25.404602 -14.598328 76.308072
RightForeArm -7.814973 -0.000000 13.097528
RightHand 1.000919 -0.000000 10.751129
RightHandThumb1 -24.326973 -0.000000 -32.862282
LeftUpLeg -2.906784 4.631028 23.210333
LeftLeg 13.319504 -0.000000 -0.000000
LeftFoot -14.090048 25.916007 -8.458067
LeftToeBase -10.591763 -0.000000 0.000000
RightUpLeg -76.994115 -47.324219 -15.280284
RightLeg 75.055381 -0.000000 -0.000000
RightFoot 40.729239 -23.615398 1.735970
RightToeBase 33.536957 -0.000000 -0.000000
703
root 0.805167 33.852411 -2.822273 28.808098 -41.295025 -41.558970
Spine 2.024068 21.855156 20.072972
Head 7.441548 11.674082 7.316358
LeftShoulder -24.788445 43.672740 11.581842
LeftArm 51.325762 -46.921901 -80.560697
LeftForeArm 5.508004 -0.000000 18.736765
LeftHand 11.828422 0.000000 5.641483
LeftHandThumb1 -26.253704 0.000000 33.147579
RightShoulder 4.170378 4.325536 -15.791164
RightArm 25.391513 -14.399800 76.232577
RightForeArm -7.903152 -0.000000 13.095501
RightHand 1.064219 -0.000000 10.401190
RightHandThumb1 -24.326973 -0.000000 -32.862282
LeftUpLeg -3.221655 4.279110 23.792873
LeftLeg 13.599474 -0.000000 -0.000000
LeftFoot -13.990206 26.015728 -8.267388
LeftToeBase -10.763367 -0.000000 0.000000
RightUpLeg -75.270603 -46.884124 -16.801317
RightLeg 74.841209 -0.000000 -0.000000
RightFoot 40.794972 -23.639007 1.510853
RightToeBase 33.540256 -0.000000 -0.000000
